<svg width="389.36232910156247px" height="156.79999999999998px" xmlns="http://www.w3.org/2000/svg" viewBox="55.31883544921877 -3.3999999999999915 389.36232910156247 156.79999999999998" style="background: rgb(26, 26, 26);" preserveAspectRatio="xMidYMid"><defs><filter id="editing-hover" x="-100%" y="-100%" width="300%" height="300%"><feFlood flood-color="#052b4a" result="flood"></feFlood><feComposite operator="in" in2="SourceAlpha" in="flood" result="shadow"></feComposite><feOffset dx="-4" dy="-4" in="SourceGraphic" result="offset-1"></feOffset><feOffset dx="4" dy="4" in="shadow" result="offset-2"></feOffset><feMerge><feMergeNode in="offset-2"></feMergeNode><feMergeNode in="offset-1"></feMergeNode></feMerge></filter></defs><g filter="url(#editing-hover)"><g transform="translate(116.24211764335632, 116.45000076293945)"><path d="M12.14-15.09L11.07-19.19L11.07-19.19Q10.58-20.99 8.45-30.91L8.45-30.91L8.45-30.91Q6.31-40.84 4.10-46.74L4.10-46.74L4.10-46.74Q1.89-52.64-1.15-54.61L-1.15-54.61L-1.15-54.61Q-1.97-55.02-1.97-55.68L-1.97-55.68L-1.97-55.68Q-1.97-57.24 2.46-58.22L2.46-58.22L2.46-58.22Q6.89-59.20 9.31-59.20L9.31-59.20L9.31-59.20Q11.73-59.20 12.22-57.81L12.22-57.81L12.22-57.81Q13.69-54.78 15.99-44.20L15.99-44.20L15.99-44.20Q20.66-22.06 22.88-16.32L22.88-16.32L22.88-16.32Q23.37-15.17 24.11-15.17L24.11-15.17L24.11-15.17Q24.85-15.17 25.63-16.61L25.63-16.61L25.63-16.61Q26.40-18.04 27.76-20.71L27.76-20.71L27.76-20.71Q29.11-23.37 31.41-30.18L31.41-30.18L31.41-30.18Q33.70-36.98 33.70-41.98L33.70-41.98L33.70-41.98Q33.70-49.69 28.62-52.89L28.62-52.89L28.62-52.89Q28.21-53.38 28.21-53.96L28.21-53.96L28.21-53.96Q28.21-55.68 32.96-57.40L32.96-57.40L32.96-57.40Q37.72-59.12 41.57-59.12L41.57-59.12L41.57-59.12Q44.12-59.12 44.12-56.74L44.12-56.74L44.12-56.74Q44.12-49.36 41.16-39.65L41.16-39.65L41.16-39.65Q38.21-29.93 34.11-21.61L34.11-21.61L34.11-21.61Q30.01-13.28 26.49-7.22L26.49-7.22L26.49-7.22Q20.91 2.21 19.43 2.21L19.43 2.21L19.43 2.21Q18.70 2.21 18.04 1.07L18.04 1.07L18.04 1.07Q15.58-2.46 12.14-15.09L12.14-15.09ZM53.63-43.87L53.63-43.87L51.66-43.95L51.66-43.95Q49.45-43.95 48.79-42.89L48.79-42.89L48.79-42.89Q48.63-42.64 48.38-42.64L48.38-42.64L48.38-42.64Q47.31-42.64 47.31-46.29L47.31-46.29L47.31-46.29Q47.31-49.94 48.42-50.92L48.42-50.92L48.42-50.92Q49.53-51.91 52.28-51.91L52.28-51.91L52.28-51.91Q55.02-51.91 56.01-50.96L56.01-50.96L56.01-50.96Q56.99-50.02 56.99-47.81L56.99-47.81L56.99-47.81Q56.99-45.59 56.25-44.73L56.25-44.73L56.25-44.73Q55.51-43.87 53.63-43.87ZM47.07-2.46L47.07-2.46L47.97-21.57L47.97-21.57Q47.97-28.37 46.41-30.83L46.41-30.83L46.41-30.83Q45.92-31.65 45.26-32.06L45.26-32.06L45.26-32.06Q44.77-32.23 44.77-32.72L44.77-32.72L44.77-32.72Q44.77-34.19 48.95-35.59L48.95-35.59L48.95-35.59Q53.14-36.98 55.06-36.98L55.06-36.98L55.06-36.98Q56.99-36.98 57.07-36.00L57.07-36.00L57.07-36.00Q57.07-34.36 56.62-26.69L56.62-26.69L56.62-26.69Q56.17-19.02 56.17-10.58L56.17-10.58L56.17-10.58Q56.17-2.13 57.15-0.08L57.15-0.08L57.15-0.08Q57.40 0.33 57.40 0.74L57.40 0.74L57.40 0.74Q57.40 1.80 54.28 1.80L54.28 1.80L54.28 1.80Q51.17 1.80 47.89 0.16L47.89 0.16L47.89 0.16Q47.07-0.25 47.07-2.46ZM78.80-36.82L78.80-36.82L78.80-36.82Q80.28-36.82 81.47-36.45L81.47-36.45L81.47-36.45Q82.66-36.08 82.74-36.08L82.74-36.08L83.23-36.49L82.90-45.43L82.90-45.43Q82.74-47.72 81.92-49.36L81.92-49.36L81.92-49.36Q81.10-51.00 80.44-51.50L80.44-51.50L79.70-51.91L79.70-51.91Q79.21-52.23 79.21-52.64L79.21-52.64L79.21-52.64Q79.21-53.87 83.03-55.51L83.03-55.51L83.03-55.51Q86.84-57.15 88.97-57.15L88.97-57.15L88.97-57.15Q91.10-57.15 91.27-56.25L91.27-56.25L91.27-56.25Q91.68-53.46 91.68-45.63L91.68-45.63L91.68-45.63Q91.68-37.80 91.31-30.26L91.31-30.26L91.31-30.26Q90.94-22.71 90.94-13.16L90.94-13.16L90.94-13.16Q90.94-3.61 92.17-1.15L92.17-1.15L92.17-1.15Q92.50-0.57 92.50-0.08L92.50-0.08L92.50-0.08Q92.50 1.15 88.97 1.15L88.97 1.15L88.97 1.15Q82.25 1.15 82.25-2.05L82.25-2.05L82.25-2.05Q82.08-3.36 82.08-6.11L82.08-6.11L82.08-6.11Q82.08-8.86 82.62-16.36L82.62-16.36L82.62-16.36Q83.15-23.86 83.15-27.92L83.15-27.92L83.15-27.92Q83.15-31.98 79.09-31.98L79.09-31.98L79.09-31.98Q75.03-31.98 72.90-27.22L72.90-27.22L72.90-27.22Q70.77-22.47 70.77-17.71L70.77-17.71L70.77-17.71Q70.77-7.63 75.85-7.63L75.85-7.63L75.85-7.63Q76.59-7.63 77.29-7.91L77.29-7.91L77.29-7.91Q77.98-8.20 78.15-8.20L78.15-8.20L78.15-8.20Q78.80-8.20 79.17-7.38L79.17-7.38L79.17-7.38Q79.54-6.56 79.54-5.74L79.54-5.74L79.54-5.74Q79.54-2.95 77.33-1.03L77.33-1.03L77.33-1.03Q75.11 0.90 71.91 0.90L71.91 0.90L71.91 0.90Q66.99 0.90 64.49-3.40L64.49-3.40L64.49-3.40Q61.99-7.71 61.99-14.10L61.99-14.10L61.99-14.10Q61.99-22.22 65.85-29.19L65.85-29.19L65.85-29.19Q67.81-32.64 71.18-34.73L71.18-34.73L71.18-34.73Q74.54-36.82 78.80-36.82ZM103.98-20.83L103.98-20.83L104.06-18.78L104.06-18.78Q104.06-18.29 104.71-18.29L104.71-18.29L104.71-18.29Q107.34-18.53 109.31-19.64L109.31-19.64L109.31-19.64Q111.27-20.75 112.26-22.14L112.26-22.14L112.26-22.14Q114.23-25.17 114.39-27.39L114.39-27.39L114.47-28.37L114.47-28.37Q114.47-32.80 110.95-32.80L110.95-32.80L110.95-32.80Q108.32-32.80 106.68-30.50L106.68-30.50L106.68-30.50Q103.98-26.90 103.98-20.83ZM121.85-9.92L121.85-9.92L121.85-9.92Q121.85-6.81 120.58-4.47L120.58-4.47L120.58-4.47Q119.31-2.13 117.71-1.03L117.71-1.03L117.71-1.03Q116.11 0.08 113.98 0.74L113.98 0.74L113.98 0.74Q111.27 1.56 108.81 1.56L108.81 1.56L108.81 1.56Q101.93 1.56 98.65-3.61L98.65-3.61L98.65-3.61Q95.37-8.77 95.37-16.77L95.37-16.77L95.37-16.77Q95.37-24.76 99.42-31.00L99.42-31.00L99.42-31.00Q103.48-37.23 111.60-37.23L111.60-37.23L111.60-37.23Q118.98-37.23 121.61-32.06L121.61-32.06L121.61-32.06Q122.67-30.09 122.67-28.33L122.67-28.33L122.67-28.33Q122.67-26.57 122.51-25.54L122.51-25.54L122.51-25.54Q122.34-24.52 121.36-22.47L121.36-22.47L121.36-22.47Q120.38-20.42 118.74-18.78L118.74-18.78L118.74-18.78Q117.10-17.14 113.57-15.66L113.57-15.66L113.57-15.66Q110.04-14.19 105.29-13.69L105.29-13.69L105.29-13.69Q104.63-13.69 104.63-13.12L104.63-13.12L104.63-13.12Q104.63-12.38 105.16-10.95L105.16-10.95L105.16-10.95Q105.70-9.51 106.35-8.53L106.35-8.53L106.35-8.53Q108.16-6.23 111.68-6.23L111.68-6.23L111.68-6.23Q115.21-6.23 117.67-8.53L117.67-8.53L117.67-8.53Q118.98-9.76 119.80-11.56L119.80-11.56L119.80-11.56Q120.13-12.22 120.66-12.22L120.66-12.22L120.66-12.22Q121.20-12.22 121.52-11.32L121.52-11.32L121.52-11.32Q121.85-10.41 121.85-9.92ZM133.58-30.91L133.58-30.91L133.58-30.91Q131.45-30.83 130.50-30.79L130.50-30.79L130.50-30.79Q129.56-30.75 129.56-31.24L129.56-31.24L129.56-31.24Q129.56-31.73 130.05-32.23L130.05-32.23L130.05-32.23Q135.30-37.06 147.76-37.06L147.76-37.06L147.76-37.06Q152.03-37.06 154.49-36.33L154.49-36.33L155.31-36.08L155.31-36.08Q156.29-35.67 156.29-35.18L156.29-35.18L156.29-35.18Q156.29-34.77 155.72-34.52L155.72-34.52L155.72-34.52Q153.50-33.87 151.45-32.43L151.45-32.43L151.45-32.43Q149.40-31.00 149.40-30.42L149.40-30.42L149.90-29.85L149.90-29.85Q152.52-28.37 153.96-25.17L153.96-25.17L153.96-25.17Q155.39-21.98 155.55-19.52L155.55-19.52L155.72-16.97L155.72-16.97Q155.72-8.86 151.21-3.61L151.21-3.61L151.21-3.61Q146.70 1.64 138.91 1.64L138.91 1.64L138.91 1.64Q134.97 1.64 132.10 0.25L132.10 0.25L132.10 0.25Q129.23-1.15 127.88-2.91L127.88-2.91L127.88-2.91Q126.53-4.67 125.71-6.89L125.71-6.89L125.71-6.89Q124.72-9.92 124.72-13.16L124.72-13.16L124.72-13.16Q124.72-16.40 125.83-19.68L125.83-19.68L125.83-19.68Q126.94-22.96 128.37-24.52L128.37-24.52L128.37-24.52Q129.81-26.08 131.61-27.06L131.61-27.06L131.61-27.06Q133.91-28.29 135.30-28.29L135.30-28.29L135.30-28.29Q136.69-28.29 136.69-27.72L136.69-27.72L136.20-26.90L136.20-26.90Q134.40-24.76 133.62-21.32L133.62-21.32L133.62-21.32Q132.84-17.88 132.84-15.21L132.84-15.21L132.84-15.21Q132.84-12.55 133.50-9.92L133.50-9.92L133.50-9.92Q134.15-7.30 134.97-6.03L134.97-6.03L134.97-6.03Q135.79-4.76 136.86-4.10L136.86-4.10L136.86-4.10Q138.42-3.12 140.14-3.12L140.14-3.12L140.14-3.12Q141.86-3.12 143.50-4.47L143.50-4.47L143.50-4.47Q145.14-5.82 145.88-8.04L145.88-8.04L145.88-8.04Q147.35-12.14 147.35-16.48L147.35-16.48L147.35-16.48Q147.35-23.37 143.87-27.14L143.87-27.14L143.87-27.14Q140.38-30.91 133.58-30.91ZM195.41-18.78L195.41-18.78L195.41-18.78Q196.96-18.78 196.96-14.84L196.96-14.84L196.96-14.84Q196.96-10.91 195.49-7.79L195.49-7.79L195.49-7.79Q194.01-4.67 191.92-2.95L191.92-2.95L191.92-2.95Q189.83-1.23 187.21-0.16L187.21-0.16L187.21-0.16Q178.43 3.69 170.81-0.33L170.81-0.33L170.81-0.33Q166.95-2.38 164.90-5.21L164.90-5.21L164.90-5.21Q162.85-8.04 161.62-11.97L161.62-11.97L161.62-11.97Q159.74-17.88 159.74-24.35L159.74-24.35L159.74-24.35Q159.74-30.83 160.97-36.49L160.97-36.49L160.97-36.49Q162.20-42.15 164.74-47.27L164.74-47.27L164.74-47.27Q167.28-52.40 171.95-55.51L171.95-55.51L171.95-55.51Q176.63-58.63 182.78-58.63L182.78-58.63L182.78-58.63Q185.40-58.63 188.23-57.77L188.23-57.77L188.23-57.77Q191.06-56.91 192.86-55.64L192.86-55.64L192.86-55.64Q194.67-54.37 196.06-51.74L196.06-51.74L196.06-51.74Q197.46-49.12 197.46-45.59L197.46-45.59L197.46-45.59Q197.46-41.82 195.65-38.79L195.65-38.79L195.65-38.79Q194.83-37.39 193.03-36.29L193.03-36.29L193.03-36.29Q191.22-35.18 188.76-35.18L188.76-35.18L188.76-35.18Q184.99-35.18 183.43-38.54L183.43-38.54L183.43-38.54Q182.78-39.85 182.78-41.41L182.78-41.41L182.78-41.41Q182.78-42.97 183.84-43.21L183.84-43.21L183.84-43.21Q184.99-43.54 185.98-45.02L185.98-45.02L185.98-45.02Q186.96-46.49 186.96-48.46L186.96-48.46L186.96-48.46Q186.96-50.02 186.14-51.17L186.14-51.17L186.14-51.17Q184.58-53.22 181.63-53.22L181.63-53.22L181.63-53.22Q178.68-53.22 176.26-50.51L176.26-50.51L176.26-50.51Q173.84-47.81 172.61-43.71L172.61-43.71L172.61-43.71Q170.15-35.51 170.15-28.62L170.15-28.62L170.15-28.62Q170.15-21.73 172.04-17.55L172.04-17.55L172.04-17.55Q174.33-12.38 177.86-10.66L177.86-10.66L177.86-10.66Q180.07-9.59 182.94-9.59L182.94-9.59L182.94-9.59Q187.78-9.59 191.63-13.94L191.63-13.94L191.63-13.94Q193.27-15.66 194.34-18.04L194.34-18.04L194.34-18.04Q194.75-18.78 195.41-18.78ZM209.92-43.87L209.92-43.87L207.95-43.95L207.95-43.95Q205.74-43.95 205.08-42.89L205.08-42.89L205.08-42.89Q204.92-42.64 204.67-42.64L204.67-42.64L204.67-42.64Q203.61-42.64 203.61-46.29L203.61-46.29L203.61-46.29Q203.61-49.94 204.71-50.92L204.71-50.92L204.71-50.92Q205.82-51.91 208.57-51.91L208.57-51.91L208.57-51.91Q211.31-51.91 212.30-50.96L212.30-50.96L212.30-50.96Q213.28-50.02 213.28-47.81L213.28-47.81L213.28-47.81Q213.28-45.59 212.54-44.73L212.54-44.73L212.54-44.73Q211.81-43.87 209.92-43.87ZM203.36-2.46L203.36-2.46L204.26-21.57L204.26-21.57Q204.26-28.37 202.70-30.83L202.70-30.83L202.70-30.83Q202.21-31.65 201.56-32.06L201.56-32.06L201.56-32.06Q201.06-32.23 201.06-32.72L201.06-32.72L201.06-32.72Q201.06-34.19 205.25-35.59L205.25-35.59L205.25-35.59Q209.43-36.98 211.36-36.98L211.36-36.98L211.36-36.98Q213.28-36.98 213.36-36.00L213.36-36.00L213.36-36.00Q213.36-34.36 212.91-26.69L212.91-26.69L212.91-26.69Q212.46-19.02 212.46-10.58L212.46-10.58L212.46-10.58Q212.46-2.13 213.45-0.08L213.45-0.08L213.45-0.08Q213.69 0.33 213.69 0.74L213.69 0.74L213.69 0.74Q213.69 1.80 210.58 1.80L210.58 1.80L210.58 1.80Q207.46 1.80 204.18 0.16L204.18 0.16L204.18 0.16Q203.36-0.25 203.36-2.46ZM217.46-31.98L217.46-31.98L217.71-35.26L217.71-35.26Q217.79-36.00 218.86-36.00L218.86-36.00L221.73-36.00L221.40-42.56L221.40-42.89L221.40-42.89Q221.40-44.77 224.27-46.49L224.27-46.49L224.27-46.49Q227.14-48.22 229.52-48.22L229.52-48.22L229.52-48.22Q230.26-48.22 230.26-47.56L230.26-47.56L230.26-47.48L230.26-47.48Q229.93-45.26 229.60-36.08L229.60-36.08L229.60-36.08Q233.21-36.08 234.19-36.24L234.19-36.24L234.19-36.24Q235.18-36.41 235.26-36.41L235.26-36.41L235.26-36.41Q235.83-36.41 235.83-35.42L235.83-35.42L235.83-35.42Q235.83-34.44 234.93-32.92L234.93-32.92L234.93-32.92Q234.03-31.41 232.96-31.32L232.96-31.32L229.52-31.32L229.52-31.32Q229.44-28.54 229.44-21.94L229.44-21.94L229.44-21.94Q229.44-15.33 229.56-11.07L229.56-11.07L229.56-11.07Q229.68-6.81 229.85-4.63L229.85-4.63L229.85-4.63Q230.01-2.46 230.22-1.15L230.22-1.15L230.22-1.15Q230.42 0.16 230.54 0.74L230.54 0.74L230.54 0.74Q230.67 1.31 230.67 1.48L230.67 1.48L230.67 1.48Q230.67 2.30 229.60 2.38L229.60 2.38L229.60 2.38Q226.40 2.38 223.25 1.48L223.25 1.48L223.25 1.48Q220.09 0.57 220.09-1.64L220.09-1.64L220.09-1.64Q221.81-15.42 221.81-31.24L221.81-31.24L221.81-31.24Q219.60-31.24 218.45-31.08L218.45-31.08L218.37-31.08L218.37-31.08Q217.63-31.08 217.46-31.98ZM252.40 22.71L252.40 22.71L252.40 22.71Q252.40 23.70 251.41 23.70L251.41 23.70L251.33 23.70L251.33 23.70Q248.62 23.70 245.22 21.81L245.22 21.81L245.22 21.81Q241.82 19.93 241.82 17.47L241.82 17.47L241.82 17.47Q241.82 15.01 244.93 8.90L244.93 8.90L244.93 8.90Q248.05 2.79 248.05 0.74L248.05 0.74L248.05 0.74Q248.05-1.48 245.92-7.22L245.92-7.22L245.92-7.22Q243.21-14.68 241.61-19.35L241.61-19.35L241.61-19.35Q240.01-24.03 238.17-27.59L238.17-27.59L238.17-27.59Q236.32-31.16 235.50-31.82L235.50-31.82L234.68-32.39L234.68-32.39Q233.78-32.88 233.78-33.46L233.78-33.46L233.78-33.46Q233.78-34.60 237.35-35.79L237.35-35.79L237.35-35.79Q240.92-36.98 243.62-36.98L243.62-36.98L243.62-36.98Q244.85-36.98 245.67-35.01L245.67-35.01L245.67-35.01Q247.15-31.16 248.87-24.35L248.87-24.35L248.87-24.35Q253.05-10.41 254.12-10.41L254.12-10.41L254.12-10.41Q254.86-10.41 257.11-16.15L257.11-16.15L257.11-16.15Q259.37-21.89 259.37-25.42L259.37-25.42L259.37-25.42Q259.37-31.57 255.76-32.64L255.76-32.64L255.76-32.64Q254.94-32.80 254.94-33.46L254.94-33.46L254.94-33.46Q254.94-34.93 258.79-36.29L258.79-36.29L258.79-36.29Q262.65-37.64 265.76-37.64L265.76-37.64L265.76-37.64Q268.47-37.64 268.47-34.11L268.47-34.11L268.47-34.11Q268.47-31.41 267.32-27.80L267.32-27.80L267.32-27.80Q266.17-24.19 265.19-22.10L265.19-22.10L265.19-22.10Q264.20-20.01 260.31-12.42L260.31-12.42L260.31-12.42Q256.41-4.84 253.87 0.90L253.87 0.90L253.87 0.90Q251.08 7.79 251.08 14.92L251.08 14.92L251.08 14.92Q251.08 18.70 251.74 20.58L251.74 20.58L251.74 20.58Q252.40 22.47 252.40 22.71Z" fill="#ffd5af"></path></g></g><style>text {
  font-size: 64px;
  font-family: Arial Black;
  dominant-baseline: central;
  text-anchor: middle;
}</style></svg>